# xmcd
#
# Track frame offsets: 
#        150
#        20595
#        38768
#        59710
#        76212
#        94251
#        116677
#        141658
#
# Disc length: 2232 seconds
#
# Revision: 0
# Processed by: cddbd v1.5.2PL0 Copyright (c) Steve Scherf et al.
# Submitted via: ExactAudioCopy v0.95b4
#
DISCID=7008b608
DTITLE=Kaupo - Promo 2007
DYEAR=2007
DGENRE=House
TTITLE0=Õhtud
TTITLE1=Loft
TTITLE2=Untitled 2
TTITLE3=Detroit kutsub
TTITLE4=Sohh
TTITLE5=I Love Those Drums
TTITLE6=Õhtud (Aur Remix)
TTITLE7=Õhtud (Kui Laks käis Rakveres Mix)
EXTD=
EXTT0=
EXTT1=
EXTT2=
EXTT3=
EXTT4=
EXTT5=
EXTT6=
EXTT7=
PLAYORDER=
